<svg width="110" height="110" viewBox="0 0 110 110" fill="none" xmlns="http://www.w3.org/2000/svg">
<path d="M29.3906 7.94922V19.172L59.916 54.4956L80.6197 78.4626V67.2521L29.3906 7.94922Z" fill="#FFB701"/>
<path d="M59.8916 65.7876L29.3906 30.4883V41.711L80.6197 101.002V89.7911L59.8916 65.7876Z" fill="#FFB701"/>
<path d="M0 25.5019V84.2448L7.32366 92.7654V16.957L0 25.5019Z" fill="#FFB701"/>
<path d="M21.8827 0L14.5469 8.54487V101.151L21.8827 109.683V0Z" fill="#FFB701"/>
<path d="M109.969 25.5019V84.2448L102.633 92.7654V16.957L109.969 25.5019Z" fill="#FFB701"/>
<path d="M50.5896 43.6836L45.7031 49.368L50.5531 54.9794L55.4396 49.295L50.5896 43.6836Z" fill="#FFB701"/>
<path d="M21.875 110.002L50.1704 77.0879L45.3204 71.4766L21.875 98.7544V110.002Z" fill="#444444"/>
<path d="M21.875 88.3232L40.8361 66.2793L35.9861 60.668L21.875 77.0761V88.3232Z" fill="#444444"/>
<path d="M88.0781 0L95.414 8.54487V101.151L88.0781 109.683V0Z" fill="#DD5858"/>
<path d="M88.0781 0L95.414 8.54487V101.151L88.0781 109.683V0Z" fill="#FFB701"/>
<path d="M88.0805 21.7383L69.5703 43.283L74.4203 48.8944L88.0805 32.9854V21.7383Z" fill="#444444"/>
<path d="M88.0833 0.0742188L60.2266 32.4644L65.0765 38.0758L88.0833 11.3213V0.0742188Z" fill="#444444"/>
<path opacity="0.4" d="M25.5445 72.8164L21.9375 77.0036V88.2507L25.5445 84.0635V72.8164Z" fill="#7F7F7F"/>
<path opacity="0.4" d="M22.3031 109.513L25.5445 105.728V94.4805L21.9375 98.6799V109.099L22.3031 109.513Z" fill="#7F7F7F"/>
<path opacity="0.4" d="M84.4141 37.2578L88.082 32.9854V21.7383L84.4141 26.0107V37.2578Z" fill="#7F7F7F"/>
<path opacity="0.4" d="M84.4141 15.5816L88.082 11.3213V0.0742188L84.4141 4.33448V15.5816Z" fill="#7F7F7F"/>
<path opacity="0.4" d="M55.4375 49.2954L57.8259 52.0707L62.6515 46.4471L60.2631 43.6719L55.4375 49.2954Z" fill="#7F7F7F"/>
<path opacity="0.4" d="M45.7109 60.5923L48.1115 63.3675L52.9371 57.744L50.5487 54.9688L45.7109 60.5923Z" fill="#7F7F7F"/>
<path d="M59.9212 54.4961L55.0469 60.1805L59.8968 65.7919L64.7711 60.1075L59.9212 54.4961Z" fill="#FFB701"/>
<path opacity="0.4" d="M57.4509 74.1757L62.2887 68.5521L59.9003 65.7891L55.0625 71.4126L57.4509 74.1757Z" fill="#7F7F7F"/>
<path opacity="0.4" d="M67.1619 62.8827L71.9996 57.2592L69.6112 54.4961L64.7734 60.1075L67.1619 62.8827Z" fill="#7F7F7F"/>
</svg>
